<svg width="768" height="600" viewBox="0 0 768 600" fill="none" xmlns="http://www.w3.org/2000/svg">
<path d="M415.218 599.674C499.056 599.674 567.021 587.942 567.021 573.47C567.021 558.998 499.056 547.267 415.218 547.267C331.379 547.267 263.414 558.998 263.414 573.47C263.414 587.942 331.379 599.674 415.218 599.674Z" fill="#E2EEFB"/>
<path d="M752.233 280.811C738.92 170.78 630.957 174.71 578.64 188.857C578.64 246.23 554.312 372.469 467.252 394.772C378.285 417.564 351.524 525.238 503.417 542.528C655.308 559.82 768.867 418.351 752.233 280.811Z" fill="#3353C1"/>
<path d="M467.251 394.772C454.362 402.887 442.558 411.917 432.534 421.413C467.251 466.293 564.277 475.445 619.147 459.219C656.353 448.216 666.129 416.55 647.671 394.772C776.101 268.236 658.925 177.067 578.639 188.857C578.639 231.985 559.429 297.727 517.017 349.974C503.008 367.232 486.467 382.674 467.251 394.772Z" fill="#09268A"/>
<path d="M752.227 280.812C738.92 170.781 630.957 174.71 578.638 188.858C634.334 165.278 686.411 176.294 720.407 199.074C807.198 257.235 763.079 460.215 666.16 520.523C581.531 573.18 449.891 561.391 406.493 501.66C428.192 520.523 448.622 536.292 503.415 542.529C655.308 559.819 768.867 418.351 752.227 280.812Z" fill="#09268A"/>
<path d="M460.044 552.128L476.054 517.01L435.463 503.375L414.459 544.458L460.044 552.128Z" fill="#FECEB5"/>
<path d="M476.053 517.01L435.463 503.374L430.714 512.663L465.136 540.957L476.053 517.01Z" fill="#CC9477"/>
<path d="M472.207 202.391C471.959 204.363 474.373 211.273 474.774 212.7L459.827 222.19C459.058 220.864 455.8 213.922 448.227 210.266C438.762 205.697 434.585 200.698 434.596 195.571C432.179 192.137 433.727 189.662 437.913 189.535C436.265 187.427 437.65 183.203 441.341 182.956C440.684 181.088 441.958 177.407 445.923 178.367C434.212 166.985 436.427 161.252 439.067 163.6C441.706 165.949 464.793 190.339 465.794 185.453C467.463 177.309 471.933 173.262 474.574 175.61C473.708 177.3 472.117 181.512 472.683 184.84C473.391 189.001 473.045 195.755 472.207 202.391Z" fill="#FECEB5"/>
<path d="M445.354 178.802C450.695 183.593 459.614 193.273 452.561 193.666M452.561 193.666C453.719 195.521 453.285 200.14 448.118 197.839M452.561 193.666L441.785 183.712M448.118 197.839C448.685 200.076 447.762 204.576 443.674 202.013C440.403 199.962 436.156 196.17 434.441 194.531M448.118 197.839L438.113 189.121" stroke="#802910"/>
<path d="M368.353 537.57C385.271 543.849 408.957 536.072 418.685 531.399L422.032 526.983L432.347 532.178C433.283 532.649 433.69 533.861 433.308 534.903C432.34 537.549 430.964 542.169 432.767 543.077C434.609 544.004 437.099 539.876 438.39 537.401C438.889 536.444 439.983 536.023 440.902 536.486L463.277 547.755L456.216 564.309L441.706 598.326L329.746 541.942C331.674 535.908 347.205 529.721 368.353 537.57Z" fill="#E24F4A"/>
<path d="M407.895 535.613L454.002 558.832C443.85 557.553 425.951 562.705 416.229 585.496" stroke="#FFF9F4"/>
<path d="M441.715 598.328L329.754 541.943C330.093 540.885 330.848 539.824 331.979 538.833L443.2 594.846L441.715 598.328Z" fill="white"/>
<path d="M411.591 547.217C410.991 547.561 410.361 547.668 409.835 547.576C409.309 547.485 408.906 547.202 408.703 546.783C408.5 546.364 408.512 545.844 408.74 545.32C408.968 544.797 409.404 544.293 410.005 543.949C410.606 543.604 411.235 543.498 411.762 543.589C412.288 543.68 412.69 543.963 412.893 544.382C413.097 544.801 413.084 545.321 412.856 545.845C412.629 546.368 412.192 546.872 411.591 547.217Z" stroke="#FFF9F4"/>
<path d="M398.904 552.151C398.264 552.394 397.626 552.399 397.118 552.224C396.61 552.05 396.251 551.705 396.106 551.258C395.962 550.811 396.046 550.299 396.342 549.818C396.638 549.337 397.139 548.908 397.78 548.664C398.42 548.419 399.058 548.415 399.566 548.59C400.074 548.765 400.434 549.109 400.578 549.556C400.722 550.002 400.638 550.516 400.342 550.997C400.046 551.478 399.545 551.907 398.904 552.151Z" stroke="#FFF9F4"/>
<path d="M386.758 553.15C386.101 553.337 385.465 553.286 384.972 553.068C384.479 552.849 384.146 552.474 384.035 552.016C383.924 551.559 384.046 551.054 384.376 550.601C384.707 550.147 385.238 549.763 385.895 549.577C386.552 549.389 387.187 549.44 387.68 549.659C388.174 549.878 388.507 550.252 388.618 550.71C388.728 551.168 388.607 551.672 388.276 552.126C387.945 552.579 387.414 552.963 386.758 553.15Z" stroke="#FFF9F4"/>
<path d="M407.301 536.436C400.971 531.394 390.197 519.667 397.752 513.091C407.195 504.873 410.556 528.807 407.301 536.436ZM407.301 536.436C413.008 530.351 425.499 520.023 429.821 527.389C435.223 536.597 421.915 541.942 407.301 536.436Z" stroke="white" stroke-width="2"/>
<path d="M504.158 249.674C512.527 235.708 529.953 208.928 553.869 197.211L567.639 241.888C551.695 272.2 530.334 307.494 502.414 319.07C483.574 326.881 464.729 292.51 459.657 230.952L455.719 218.773L475.6 206.736C477.21 208.191 478.334 215.098 481.553 218.59C503.636 239.455 504.463 247.811 504.072 249.792C504.098 249.755 504.127 249.716 504.158 249.674Z" fill="#48AB68"/>
<path d="M475.229 205.945C476.808 207.438 477.912 214.529 481.071 218.114L459.583 230.805L455.719 218.302L475.229 205.945Z" fill="white"/>
<path d="M567.639 241.894C551.616 272.372 530.151 307.856 502.095 319.495C512.582 283.053 540.64 226.819 553.358 203.258L567.639 241.894Z" fill="#347E4C"/>
<path d="M505.698 447.372C510.277 440.043 514.952 426.955 517.265 423.814C586.667 456.796 590.878 455.362 606.185 443.446C621.237 431.727 621.726 399.592 621.367 382.98L513.65 349.998C512.928 351.307 511.482 354.553 511.482 357.066C414.61 309.165 373.406 368.061 398.707 399.471C422.022 428.415 477.746 441.352 505.698 447.372Z" fill="#FE9200"/>
<path d="M505.679 447.378C510.258 440.06 514.934 426.992 517.248 423.855C586.661 456.787 590.873 455.356 606.183 443.458C621.237 431.757 621.726 399.67 621.367 383.082L513.632 350.15C512.91 351.457 511.463 354.698 511.463 357.208C502.283 352.676 493.604 349.101 485.432 346.371C480.371 353.38 470.827 371.163 467.357 379.946C461.572 376.809 443.496 368.968 425.42 372.105C448.557 372.533 465.911 383.081 465.911 383.081L450.004 431.885C470.481 439.573 491.601 444.351 505.679 447.378Z" fill="#CF7802"/>
<path d="M629.702 195.88C582.293 248.705 576.945 214.746 574.055 191.164C566.106 191.164 549.34 193.994 545.871 205.313C542.402 216.632 512.629 308.029 499.621 352.312L631.866 390.044C633.313 378.776 640.313 338.162 644.153 324.798C659.284 272.131 659.327 222.607 656.433 213.96C651.375 206.099 641.982 200.596 629.702 195.88Z" fill="#48AB68"/>
<path d="M629.498 195.88C582.166 248.705 576.826 214.746 573.941 191.164C566.005 206.885 576.952 208.457 573.941 215.532C570.93 222.607 573.218 230.468 578.27 230.468C583.32 230.468 589.092 235.97 591.979 239.901C601.359 243.045 611.46 229.682 615.789 229.682C638.878 225.908 636.473 206.34 632.386 197.026C631.44 196.639 630.481 196.257 629.498 195.88Z" fill="#347E4C"/>
<path d="M644.128 325.196C659.284 272.362 659.327 222.682 656.433 214.008C649.199 219.265 634.142 238.137 626.035 246.339C628.929 269.996 633.276 287.344 634.723 290.499C636.17 293.653 612.287 293.653 596.365 303.116C590.576 305.008 577.066 309.161 571.035 311.002C570.553 315.996 569.733 326.773 570.312 329.927C571.035 333.87 632.046 340.178 639.534 345.699C641.203 337.222 642.842 329.679 644.128 325.196Z" fill="#347E4C"/>
<path d="M427.894 510.661L473.639 536.516C473.639 536.516 532.541 412.342 535.36 415.861C538.178 419.379 554.239 439.992 568.761 450.334C605.067 476.189 631.934 437.798 625.399 387.656C536.812 325.76 499.054 328.894 482.353 356.316C467.916 380.021 451.13 440.149 427.894 510.661Z" fill="#FE9200"/>
<path d="M615.235 381.225C615.477 401.17 613.212 439.801 593.552 441.061C561.027 443.145 536.453 366.267 527.779 381.225L461.284 528.454" stroke="white"/>
<path d="M516.304 330.188L553.624 330.034L622.765 361.764L625.665 368.522L528.343 368.942L516.304 330.188Z" fill="#124FAA"/>
<path d="M627.111 368.524L528.342 368.944L527.224 362.202L622.913 361.807L627.111 368.524Z" fill="#0B408F"/>
<path d="M568.136 340.114L587.792 349.121L572.672 349.184L556.233 340.163L568.136 340.114Z" fill="#0B408F"/>
<path d="M536.263 333.6L580.606 357.325L523.978 357.595L517.281 333.679L536.263 333.6Z" fill="#0B408F"/>
<path d="M506.81 260.717C506.76 260.467 506.586 260.27 506.358 260.207L440.719 241.979C440.272 241.856 439.863 242.286 439.962 242.775L459.319 338.465C459.363 338.682 459.503 338.862 459.692 338.944L528.343 368.941L506.81 260.717Z" fill="#124FAA"/>
<path d="M512.812 318.128L502.461 266.186L462.651 254.773" stroke="white"/>
<path d="M473.905 291.711C473.592 300.873 479.279 301.629 482.161 300.861C481.867 304.373 477.312 309.522 473.888 306.079C470.464 302.635 469.778 297.291 473.905 291.711Z" fill="white"/>
<path d="M579.362 206.933L589.635 160.94L618.417 154.277L620.761 202.637L594.98 221.093L579.362 206.933Z" fill="#FECEB5"/>
<path d="M589.635 160.94L618.417 154.277L618.838 164.493L611.187 173.138L584.102 185.713L589.635 160.94Z" fill="#5E0D05"/>
<path d="M595.584 216.167L582.188 202.539C581.092 196.569 584.425 184.926 584.425 184.926C570.599 191.19 581.858 202.738 580.972 216.265C580.263 227.086 588.458 230.549 592.643 230.927C596.335 227.992 604.596 221.536 608.104 219.197C612.489 216.273 620.687 215.53 627.6 203.477C633.134 193.835 624.564 186.17 619.716 183.441C619.716 183.441 620.538 198.452 619.574 200.783C618.411 203.602 595.584 216.167 595.584 216.167Z" fill="#E1E1E1"/>
<path d="M604 176.638C572.131 180.479 574.3 144.843 579.83 117.88L626.413 116.641C635.057 130.696 622.035 174.465 604 176.638Z" fill="#FECEB5"/>
<path d="M594.745 96.2486C579.847 109.614 569.282 101.881 567.851 96.8876C560.633 122.585 585.435 136.6 595.373 124.082C599.141 131.418 606.284 126.882 609.022 126.14C608.674 130.983 611.099 136.263 615.368 136.626C623.89 121.134 629.906 137.958 626.376 147.202C641.024 122.723 630.593 111.895 622.585 111.216C621.571 100.411 611.27 81.424 594.745 96.2486Z" fill="black"/>
<path d="M623.853 109.816C623.686 101.877 628.979 95.6681 631.978 99.1512C634.971 102.634 631.557 108.358 623.853 109.816Z" fill="#081C3E"/>
<path d="M619.364 207.112C632.491 198.576 626.79 187.367 619.716 183.443C632.077 183.699 633.388 192.978 631.427 196.543C640.022 209.341 625.417 226.36 611.671 226.785C600.427 227.131 601.785 238.371 591.538 237.144C588.042 229.725 572.341 229.914 575.916 218.192C577.484 213.052 574.573 209.141 572.979 204.73C571.385 200.318 571.456 185.659 584.425 184.927C575.507 192.212 589.104 199.658 584.064 210.669C580.895 217.593 593.153 221.734 595.392 222.125C598.987 216.687 609.155 213.75 619.364 207.112Z" fill="white"/>
<path d="M618.387 216.277C625.807 213.028 632.38 203.789 631.434 196.545C631.786 197.075 632.101 197.612 632.38 198.155C632.38 209.291 624.094 214.493 618.387 216.277Z" fill="#E1E1E1"/>
<path d="M567.938 98.9086C575.37 113.593 581.54 117.286 600.926 99.684C607.15 94.0333 618.578 98.6083 621.559 112.41" stroke="#3C3C3C"/>
<path d="M568.137 107.719C574.531 121.329 580.732 126.413 597.626 110.793C606.571 102.524 617.261 104.208 621.503 112.363" stroke="#3C3C3C"/>
<path d="M622.01 112.351C616.745 111.389 604.648 111.821 598.368 121.248" stroke="#3C3C3C"/>
<path d="M621.565 112.406C625.343 115.244 632.114 123.984 629.096 134.206" stroke="#3C3C3C"/>
<path d="M621.559 112.409C617.906 115.262 611.498 123.103 615.347 131.819" stroke="#3C3C3C"/>
<path d="M619.512 136.669C620.588 133.841 627 133.745 624.211 144.843" stroke="#802910"/>
<path d="M581.533 152.444C582.712 159.762 589.076 172.086 601.663 167.892" stroke="#802910"/>
<path d="M55.0325 20.5026H381.688L401.923 253.65H75.2678L55.0325 20.5026Z" fill="#FFF3BF"/>
<path d="M382.376 20.5026H55.0325L58.5029 60.1442H385.846L382.376 20.5026Z" fill="#FE9200"/>
<path d="M568.286 308.068C574.672 310.055 585.175 310.662 589.629 310.717C592.098 315.272 596.843 325.211 596.079 328.53C580.885 333.85 570.575 328.524 570.302 329.71C570.029 330.896 565.696 334.768 566.765 336.318C571.405 343.686 572.807 348.48 569.821 348.48C567.789 348.48 564.896 343.686 561.93 339.408C559.833 341.328 558.237 339.349 556.837 336.764C548.713 341.328 555.08 320.856 554.07 321.527C540.303 339.756 537.006 333.988 537.41 333.468C537.815 332.949 542.173 324.908 548.713 317.552C555.252 310.196 560.304 305.585 568.286 308.068Z" fill="#FEC3A7"/>
<path d="M556.509 336.964L558.982 322.854" stroke="#5E0D05"/>
<path d="M561.456 338.98L563.311 326.214" stroke="#5E0D05"/>
<path d="M595.827 306.433L584.953 308.014L587.853 332.503H600.178C669.777 350.671 686.979 334.873 686.979 308.804C686.979 285.105 674.854 240.077 656.724 214.008L622.653 229.807C628.453 260.616 641.5 294.584 641.5 294.584C637.153 294.584 629.9 291.425 595.827 306.433Z" fill="#48AB68"/>
<path d="M595.994 306.057L584.953 307.604L587.897 331.589H600.411L595.994 306.057Z" fill="white"/>
<path d="M641.84 293.963C649.532 293.963 666.37 298.398 672.139 316.135" stroke="#347E4C" stroke-width="2"/>
<path d="M115.012 50.7377C119.451 50.7377 123.05 46.6766 123.05 41.6671C123.05 36.6576 119.451 32.5966 115.012 32.5966C110.572 32.5966 106.973 36.6576 106.973 41.6671C106.973 46.6766 110.572 50.7377 115.012 50.7377Z" fill="#E24F4A"/>
<path d="M184.266 50.7377C188.706 50.7377 192.305 46.6766 192.305 41.6671C192.305 36.6576 188.706 32.5966 184.266 32.5966C179.827 32.5966 176.228 36.6576 176.228 41.6671C176.228 46.6766 179.827 50.7377 184.266 50.7377Z" fill="#E24F4A"/>
<path d="M253.83 50.7377C258.099 50.7377 261.559 46.6766 261.559 41.6671C261.559 36.6576 258.099 32.5966 253.83 32.5966C249.561 32.5966 246.101 36.6576 246.101 41.6671C246.101 46.6766 249.561 50.7377 253.83 50.7377Z" fill="#E24F4A"/>
<path d="M323.084 50.7377C327.353 50.7377 330.814 46.6766 330.814 41.6671C330.814 36.6576 327.353 32.5966 323.084 32.5966C318.816 32.5966 315.355 36.6576 315.355 41.6671C315.355 46.6766 318.816 50.7377 323.084 50.7377Z" fill="#E24F4A"/>
<path d="M115.939 40.9953C115.427 40.9953 115.012 41.4465 115.012 42.0031C115.012 42.5598 115.427 43.011 115.939 43.011V40.9953ZM129.543 21.5104C129.543 32.5317 123.242 40.9953 115.939 40.9953V43.011C124.687 43.011 131.398 33.1248 131.398 21.5104H129.543ZM102.336 21.5104C102.336 10.4892 108.637 2.02557 115.939 2.02557V0.0098877C107.192 0.0098877 100.481 9.89608 100.481 21.5104H102.336ZM115.939 2.02557C123.242 2.02557 129.543 10.4892 129.543 21.5104H131.398C131.398 9.89608 124.687 0.0098877 115.939 0.0098877V2.02557Z" fill="#48AB68"/>
<path d="M185.194 40.9953C184.682 40.9953 184.266 41.4465 184.266 42.0031C184.266 42.5598 184.682 43.011 185.194 43.011V40.9953ZM198.797 21.5104C198.797 32.5317 192.496 40.9953 185.194 40.9953V43.011C193.942 43.011 200.652 33.1248 200.652 21.5104H198.797ZM171.59 21.5104C171.59 10.4892 177.891 2.02557 185.194 2.02557V0.0098877C176.446 0.0098877 169.735 9.89608 169.735 21.5104H171.59ZM185.194 2.02557C192.496 2.02557 198.797 10.4892 198.797 21.5104H200.652C200.652 9.89608 193.942 0.0098877 185.194 0.0098877V2.02557Z" fill="#48AB68"/>
<path d="M254.448 40.9953C253.936 40.9953 253.521 41.4465 253.521 42.0031C253.521 42.5598 253.936 43.011 254.448 43.011V40.9953ZM268.052 21.5104C268.052 32.5317 261.751 40.9953 254.448 40.9953V43.011C263.196 43.011 269.907 33.1248 269.907 21.5104H268.052ZM240.845 21.5104C240.845 10.4892 247.146 2.02557 254.448 2.02557V0.0098877C245.701 0.0098877 238.99 9.89608 238.99 21.5104H240.845ZM254.448 2.02557C261.751 2.02557 268.052 10.4892 268.052 21.5104H269.907C269.907 9.89608 263.196 0.0098877 254.448 0.0098877V2.02557Z" fill="#48AB68"/>
<path d="M324.012 40.9953C323.5 40.9953 323.084 41.4465 323.084 42.0031C323.084 42.5598 323.5 43.011 324.012 43.011V40.9953ZM337.306 21.5104C337.306 26.9711 335.769 31.8764 333.328 35.3942C330.887 38.9115 327.584 40.9953 324.012 40.9953V43.011C328.295 43.011 332.102 40.5074 334.809 36.6078C337.515 32.7087 339.161 27.3676 339.161 21.5104H337.306ZM310.717 21.5104C310.717 16.0498 312.255 11.1445 314.696 7.6267C317.137 4.10943 320.44 2.02557 324.012 2.02557V0.0098877C319.729 0.0098877 315.921 2.51347 313.215 6.41309C310.509 10.3122 308.862 15.6533 308.862 21.5104H310.717ZM324.012 2.02557C327.584 2.02557 330.887 4.10943 333.328 7.6267C335.769 11.1445 337.306 16.0498 337.306 21.5104H339.161C339.161 15.6533 337.515 10.3122 334.809 6.41309C332.102 2.51347 328.295 0.0098877 324.012 0.0098877V2.02557Z" fill="#48AB68"/>
<path d="M101.408 124.389H343.855" stroke="#48AB68" stroke-width="2"/>
<path d="M106.781 179.851H349.229" stroke="#48AB68" stroke-width="2"/>
<path d="M126.258 93.7391L139.69 226.555" stroke="#48AB68" stroke-width="2"/>
<path d="M175.955 93.7391L189.387 226.555" stroke="#48AB68" stroke-width="2"/>
<path d="M225.654 93.7391L239.086 226.555" stroke="#48AB68" stroke-width="2"/>
<path d="M275.353 93.7391L288.784 226.555" stroke="#48AB68" stroke-width="2"/>
<path d="M325.052 93.7391L338.484 226.555" stroke="#48AB68" stroke-width="2"/>
<path d="M0 125.196H190.951L202.524 291.814H11.5728L0 125.196Z" fill="white"/>
<path d="M202.523 291.814L190.951 125.196L207.586 295.744H11.5722V291.814H202.523Z" fill="#E2EEFB"/>
<path d="M190.951 125.196H0L0.982597 139.342H191.934L190.951 125.196Z" fill="#48AB68"/>
<path d="M31.8254 172.352H57.8641L59.3107 200.645H33.2719L31.8254 172.352Z" fill="#B7D7C2"/>
<path d="M36.1658 227.368H62.2047L63.651 255.662H37.6125L36.1658 227.368Z" fill="#B7D7C2"/>
<path d="M83.9036 172.352H109.943L111.389 200.645H85.3506L83.9036 172.352Z" fill="#B7D7C2"/>
<path d="M88.2419 227.368H114.281L115.727 255.662H89.6888L88.2419 227.368Z" fill="#B7D7C2"/>
<path d="M135.98 172.352H162.019L163.465 200.645H137.427L135.98 172.352Z" fill="#B7D7C2"/>
<path d="M140.321 227.368H166.359L167.806 255.662H141.767L140.321 227.368Z" fill="#B7D7C2"/>
<path d="M35.8639 187.376L43.5726 192.507L56.8876 178.398" stroke="#E24F4A" stroke-width="4"/>
<path d="M40.1923 244.487L47.6743 249.618L60.5977 235.508" stroke="#E24F4A" stroke-width="4"/>
<path d="M446.444 74.9261H330.814V151.606H446.444V74.9261Z" fill="#6481E6"/>
<path d="M431.14 110.956H423.488V142.367H431.14V110.956Z" fill="#E24F4A"/>
<path d="M418.386 122.966H410.734V142.367H418.386V122.966Z" fill="#E24F4A"/>
<path d="M405.632 130.357H397.98V142.367H405.632V130.357Z" fill="#E24F4A"/>
<path d="M378.426 106.799C378.426 110.544 377.404 114.206 375.489 117.32C373.573 120.435 370.851 122.863 367.666 124.296C364.482 125.729 360.977 126.105 357.596 125.374C354.215 124.643 351.109 122.839 348.672 120.191C346.234 117.542 344.574 114.167 343.902 110.493C343.229 106.819 343.574 103.012 344.894 99.5509C346.213 96.0907 348.447 93.1323 351.313 91.0515C354.18 88.9706 357.55 87.86 360.997 87.86L360.996 106.799H378.426Z" fill="#FE9200"/>
<path d="M365.248 84.1646C369.87 84.1646 374.304 86.1594 377.572 89.7117C380.841 93.2633 382.677 98.0801 382.677 103.103H365.247L365.248 84.1646Z" fill="white"/>
<path d="M431.14 92.4792H391.179V95.2508H431.14V92.4792Z" fill="white"/>
<path d="M422.638 99.8694H391.179V102.641H422.638V99.8694Z" fill="white"/>
<path d="M185.503 577.502C211.457 577.502 232.497 574.042 232.497 569.775C232.497 565.507 211.457 562.048 185.503 562.048C159.549 562.048 138.509 565.507 138.509 569.775C138.509 574.042 159.549 577.502 185.503 577.502Z" fill="#E2EEFB"/>
<path d="M185.844 440.381C181.108 401.501 200.533 373.675 210.838 364.623C198.999 384.634 201.629 415.367 203.602 448.957C205.161 475.488 182.485 490.734 170.515 495.244C170.361 495.312 170.208 495.369 170.057 495.413C170.208 495.359 170.361 495.302 170.515 495.244C177.763 492.051 188.658 463.483 185.844 440.381Z" fill="#E24F4A"/>
<path d="M158.881 403.216C147.83 367.195 165.677 335.319 175.982 323.884C171.378 363.192 172.693 373.913 184.532 411.792C196.372 449.671 183.217 488.981 172.693 496.842C184.532 484.692 172.693 448.242 158.881 403.216Z" fill="#48AB68"/>
<path d="M131.251 456.818C154.93 463.679 162.164 485.882 162.822 496.127H174.662C172.688 471.112 152.299 456.818 131.251 456.818Z" fill="#FE9200"/>
<path d="M172.69 493.983C172.69 481.118 166.36 454.859 143.75 437.521C120.055 419.351 129.888 394.645 130.723 385.123C129.968 381.923 130.022 380.62 130.595 382.489C130.797 383.148 130.819 384.036 130.723 385.123C132.568 392.936 139.234 412.058 154.931 423.942C178.762 441.983 185.845 478.26 172.69 493.983Z" fill="#124FAA"/>
<path d="M210.833 486.345H133.219C138.511 527.235 141.451 566.847 153.799 566.847C163.794 567.06 185.902 567.358 194.369 566.847C202.836 566.335 208.873 512.966 210.833 486.345Z" fill="#839CF2"/>
<path d="M188.185 566.847C196.652 566.335 202.689 512.966 204.649 486.345H185.547C178.687 512.327 162.733 564.802 153.796 566.847C163.792 567.06 179.718 567.358 188.185 566.847Z" fill="#6481E6"/>
<path d="M204.751 538.097H140.151C140.423 539.633 140.703 541.125 140.991 542.569H203.935C204.214 541.114 204.486 539.621 204.751 538.097Z" fill="white"/>
<path d="M208.493 511.262H136.312C137.211 518.48 138.113 525.378 139.094 531.707H205.796C206.823 525.051 207.726 518.045 208.493 511.262Z" fill="white"/>
</svg>
