<svg width="700" height="808" viewBox="0 0 700 808" fill="none" xmlns="http://www.w3.org/2000/svg">
<g clip-path="url(#clip0_4177_614)">
<path d="M433.244 727.09L432.902 681.07H372.542L372.727 719.327C380.483 749.932 414.807 737.253 433.244 727.09Z" fill="white" stroke="black"/>
<path d="M432.9 681.07H372.54L372.59 691.399L433.003 694.991L432.9 681.07Z" fill="#181411" stroke="black"/>
<path d="M204.517 623.388L206.441 577.408L146.154 574.438L144.456 612.657C150.696 643.607 185.601 632.633 204.517 623.388Z" fill="white" stroke="black"/>
<path d="M437.779 781.277C433.946 782.208 338.735 786.578 293.96 788.786C292.509 769.746 292.372 764.935 324.038 748.728C361.71 729.446 366.438 701.125 369.442 701.519C386.621 702.587 385.951 715.492 385.19 721.299C421.667 746.155 428.888 709.454 434.41 717.855C442.051 729.48 442.446 748.166 439.075 758.355C435.703 768.545 439.208 770.357 437.779 781.277Z" fill="#181411"/>
<path d="M318.978 751.367C320.569 750.52 322.255 749.641 324.042 748.727C342.743 739.155 353.325 727.356 359.609 717.947L374.822 727.386C359.581 743.153 327.077 770.023 318.978 751.367Z" fill="#0B0704"/>
<path d="M437.898 771.516L293.496 780.504" stroke="white" stroke-width="2"/>
<path d="M438.133 766.408L293.238 775.085C293.313 774.053 293.519 773.005 293.907 771.923L438.02 763.961C437.993 764.861 438.043 765.675 438.133 766.408Z" fill="white"/>
<path d="M369.447 701.519C386.626 702.587 385.955 715.493 385.195 721.299C384.694 721.233 377.815 725.53 354.305 743.241C330.796 760.952 322.513 755.224 321.311 750.145C322.195 749.68 323.195 749.404 324.043 748.728C357.035 722.401 366.443 701.126 369.447 701.519Z" fill="#FFBDEA"/>
<path d="M367.015 725.705C364.905 724.321 360.083 720.015 357.683 713.855" stroke="black" stroke-width="3"/>
<path d="M355.988 735.549C353.877 734.166 349.926 731.966 347.525 725.807" stroke="black" stroke-width="3"/>
<path d="M344.006 743.945C341.896 742.562 338.238 739.869 336.584 735.003" stroke="black" stroke-width="3"/>
<path d="M206.383 677.733C202.51 678.475 107.199 678.153 62.3698 678.155C61.8576 659.066 61.9576 654.255 94.3833 639.625C132.959 622.221 139.074 594.167 142.056 594.708C159.161 596.621 157.856 609.478 156.811 615.24C192.02 641.862 201.039 605.56 206.141 614.222C213.2 626.21 212.675 644.892 208.806 654.903C204.937 664.914 208.349 666.897 206.383 677.733Z" fill="#181411"/>
<path d="M89.1941 642.012C90.8242 641.245 92.5512 640.45 94.3817 639.625C113.531 630.985 124.681 619.721 131.42 610.634L146.15 620.809C130.152 635.807 96.3634 661.044 89.1941 642.012Z" fill="#0B0704"/>
<path d="M206.986 667.99L62.3153 669.86" stroke="white" stroke-width="2"/>
<path d="M207.47 662.902L62.3243 664.436C62.4495 663.409 62.7065 662.372 63.1477 661.311L207.478 660.452C207.407 661.35 207.417 662.164 207.47 662.902Z" fill="white"/>
<path d="M142.057 594.71C159.163 596.621 157.857 609.479 156.812 615.24C156.315 615.15 149.233 619.103 124.88 635.636C100.527 652.168 92.5364 646.039 91.585 640.907C92.4912 640.486 93.505 640.26 94.3842 639.626C128.632 614.955 139.075 594.168 142.057 594.71Z" fill="#FFBDEA"/>
<path d="M138.439 618.745C136.399 617.259 131.796 612.721 129.7 606.45" stroke="black" stroke-width="3"/>
<path d="M126.942 628.034C124.903 626.549 121.065 624.157 118.97 617.887" stroke="black" stroke-width="3"/>
<path d="M114.56 635.83C112.52 634.345 109 631.475 107.587 626.533" stroke="black" stroke-width="3"/>
<path d="M137.771 396.79C177.83 374.949 259.985 344.271 259.985 344.271L349.922 347.749C410.446 498.75 203.244 447.4 203.244 457.835C203.244 466.183 216.051 587.109 216.051 587.109L129.82 589.461C112.717 430.491 106.43 413.878 137.771 396.79Z" fill="#FFB26F"/>
<path d="M349.92 347.75C410.445 498.75 203.243 447.401 203.243 457.836C197.766 454.259 177.29 440.192 167.949 435.881C192.198 447.073 304.76 474.052 332.756 438.126C355.154 409.386 353.531 365.901 349.92 347.75Z" fill="#181411"/>
<path d="M217.192 229.512L219.239 227.489L261.804 267.48C261.804 267.48 238.902 306.811 219.239 301.609C170.738 288.781 181.422 189.793 159.704 168.46C144.782 153.802 153.565 140.14 153.565 138.118C153.565 136.095 155.574 137.927 157.621 135.904C159.667 133.881 165.843 128.003 169.937 130.026C171.983 128.003 174.029 125.981 178.122 128.003C178.122 93.6149 188.353 95.6377 188.353 101.707V130.026C188.353 144.186 192.442 146.209 190.397 162.391C188.35 178.574 215.146 231.535 217.192 229.512Z" fill="white" stroke="black"/>
<path d="M217.191 229.512L219.236 227.489L261.802 267.481C261.802 267.481 259.818 270.888 256.516 275.564L217.191 229.512Z" fill="black" stroke="black"/>
<path d="M438.345 123.08C451.33 119.971 459.342 106.913 456.233 93.9286C453.129 80.9684 440.118 72.9847 427.157 76.0884L79.3618 159.374L90.6114 206.351L438.345 123.08Z" fill="#0DB259"/>
<path d="M79.728 159.261L425.451 76.7856C438.444 73.686 451.463 81.7597 454.461 94.776C457.445 107.733 449.364 120.67 436.411 123.672L411.461 129.453C395.502 120.684 416.101 105.421 405.001 109.436C391.127 114.455 381.72 98.0016 371.99 103.413C362.26 108.825 119.375 163.68 107.042 166.627C99.7911 168.359 97.9154 174.776 95.9764 183.106C98.336 188.836 113.192 194.767 105.489 202.88L90.5711 206.337L79.728 159.261Z" fill="#0AA250"/>
<path d="M85.3072 185.294L430.944 105.759" stroke="#FEFCFE" stroke-width="2"/>
<path d="M90.613 206.352L80.0446 159.03L25.5739 198.173L90.613 206.352Z" fill="#110D09"/>
<path d="M25.5674 198.17L46.5469 200.808L43.1202 185.556L25.5674 198.17Z" fill="#5936FF"/>
<path d="M451.265 73.7705L461.042 114.598C461.468 116.375 460.363 118.158 458.585 118.571L424.844 126.388L413.596 79.4163L447.309 71.343C449.072 70.9207 450.843 72.0071 451.265 73.7705Z" fill="#5936FF"/>
<path d="M355.452 691.849L316.141 337.984L410.307 355.331L441.88 688.38L355.452 691.849Z" fill="#FFB26F"/>
<path d="M323.625 405.345L345.875 605.629" stroke="black"/>
<path d="M256.415 345.618L349.919 347.749L411.342 355.946L415.383 377.951L256.415 345.618Z" fill="#181411"/>
<path d="M301.713 161.469C317.111 161.913 336.477 113.219 326.332 102.64C331.496 100.416 348.785 103.02 354.606 92.2838C354.989 91.1968 355.415 90.1123 355.887 89.0303C355.565 90.2331 355.132 91.3127 354.606 92.2838C346.045 116.562 359.01 141.83 375.859 162.339C320.687 206.819 318.857 180.28 301.713 161.469Z" fill="white"/>
<path d="M326.332 102.64C336.477 113.219 317.111 161.913 301.713 161.469C318.857 180.28 320.687 206.819 375.859 162.339C358.256 140.912 344.892 114.29 355.887 89.0303C352.011 103.53 331.963 100.215 326.332 102.64Z" stroke="black"/>
<path d="M325.568 102.674C331.199 100.248 352.003 103.53 355.879 89.0303C355.845 99.854 349.88 125.907 324.672 133.659C329.163 124.679 330.51 109.41 325.568 102.674Z" fill="black" stroke="black"/>
<path d="M307.082 92.7636C307.648 95.9793 313.572 100.773 316.291 101.495C317.383 98.426 318.873 91.8467 316.089 90.077C312.609 87.8661 306.376 88.7443 307.082 92.7636Z" fill="white" stroke="black"/>
<path d="M321.029 117.943C310.195 109.846 313.001 77.8308 315.399 61.3902C351.453 47.2877 380.611 81.0453 354.623 99.1717C352.821 113.449 336.392 129.428 321.029 117.943Z" fill="white" stroke="black"/>
<path d="M349.494 79.135C349.133 81.7158 348.737 82.5656 349.731 86.566C367.894 79.2437 360.158 94.4968 353.033 96.269L354.242 101.131C363.206 98.0626 364.531 84.374 368.117 81.0919C388.267 62.6496 366.629 58.2136 359.689 58.3444C367.687 56.3453 369.947 52.0569 367.651 51.8995C363.183 51.5932 357.29 59.9494 358.087 57.1833C360.021 50.4714 358.656 42.8209 357.026 43.9073C355.396 44.9937 354.861 50.5925 355.702 55.1516C342.234 34.5884 322.209 30.465 312.581 33.5504C304.88 36.0188 309.753 42.7627 313.127 45.4579C308.373 45.1999 297.653 46.8981 292.803 55.7546C286.74 66.8253 307.677 69.7725 314.251 68.5598C313.869 69.8876 313.226 74.9828 313.456 77.6467C315.246 76.0071 318.04 74.3454 319.223 69.9998C328.603 76.9122 343.785 64.8255 342.895 67.0851C340.482 83.7684 349.944 75.909 349.494 79.135Z" fill="black"/>
<path d="M215.55 227.36L278.419 161.053L271.434 283.199L215.55 227.36Z" fill="#7B62FF"/>
<path d="M274.825 202.366L271.432 283.198L252.371 264.154L274.825 202.366Z" fill="black"/>
<path d="M385.204 158.357C365.853 158.357 323.532 160.664 277.459 161.818L253.27 345.198L450.859 369.419C433.581 189.498 433.581 158.357 385.204 158.357Z" fill="#7B62FF"/>
<path d="M382.603 186.2L397.87 159.325C427.695 164.639 433.76 193.927 443.934 297.119L379.908 283.647L382.603 186.2Z" fill="black"/>
<path d="M391.734 255.356L374.52 158.673C386.056 158.348 397.561 158.336 409.097 158.673C434.877 160.104 439.934 189.536 457.148 248.427L391.734 255.356Z" fill="#7B62FF"/>
<path d="M168.845 129.617C171.171 129.617 170.641 123.945 179.621 127.372C185.068 129.451 187.508 135.006 188.663 142.548C189.503 148.029 185.91 156.112 179.623 150.723C177.707 157.008 172.889 158.357 168.845 155.663C166.598 167.339 152.673 153.775 150.433 142.548C149.824 139.497 152.231 136.353 157.17 136.353C160.763 129.617 166.519 129.617 168.845 129.617Z" fill="white" stroke="black"/>
<path d="M179.626 150.275C180.524 144.887 178.728 135.456 169.746 130.067" stroke="black"/>
<path d="M168.848 155.663C166.602 144.886 160.764 138.15 157.172 136.354" stroke="black"/>
<path d="M387.992 244.379L540.531 216.736L561.332 437.876L405.506 464.621L387.992 244.379Z" fill="#F5DAF2"/>
<path d="M371.378 266.134L540.591 216.736L558.638 436.779L396.525 471.806L371.378 266.134Z" fill="white"/>
<path d="M405.057 295.772L510.138 262.541" stroke="black" stroke-width="2"/>
<path d="M408.651 329.004L513.733 295.772" stroke="black" stroke-width="2"/>
<path d="M414.036 361.335L502.952 333.942" stroke="black" stroke-width="2"/>
<path d="M415.837 392.321L471.97 374.358" stroke="black" stroke-width="2"/>
<path d="M482.296 371.215L524.509 357.743" stroke="black" stroke-width="2"/>
<path d="M525.017 314.669C533.293 309.168 543.652 306.481 548.312 306.101L547.413 293.977C555.184 291.734 560.739 298.185 556.214 306.379C554.241 309.953 555.427 314.26 550.606 317.561C560.127 319.154 556.056 328.53 553.306 332.218C561.249 333.301 554.472 340.116 548.638 343.774C539.589 349.447 532.777 349.811 527.354 348.936C521.93 348.062 519.411 344.895 523.482 340.826C517.413 339.008 516.284 332.446 522.626 327.251C514.572 329.093 518.149 319.236 525.017 314.669Z" fill="white" stroke="black" stroke-width="2"/>
<path d="M523.423 341.102C528.572 340.381 540.162 338.107 545.325 334.78" stroke="black"/>
<path d="M522.265 327.206C524.725 327.772 531.731 326.915 542.459 319.533" stroke="black"/>
<path d="M173.337 677.479H35.9224V788.847H173.337V677.479Z" fill="#FFBDEA"/>
<path d="M105.528 677.479C118.402 689.603 136.424 716.727 105.528 728.223C66.9086 742.593 32.3305 739.45 41.3118 787.499" stroke="white" stroke-width="2"/>
<path d="M234.411 677.479H173.338V788.847H234.411V677.479Z" fill="#5B35FF"/>
<path d="M76.3423 788.398C69.1558 765.944 87.569 748.282 109.573 755.616C138.313 765.195 167.054 774.027 171.993 740.348" stroke="white" stroke-width="2"/>
<path d="M192.2 798.727H0" stroke="#181411" stroke-width="2"/>
<path d="M107.629 86.2673C131.224 86.2673 150.352 67.1396 150.352 43.5443C150.352 19.949 131.224 0.821289 107.629 0.821289C84.0338 0.821289 64.9061 19.949 64.9061 43.5443C64.9061 67.1396 84.0338 86.2673 107.629 86.2673Z" stroke="black" stroke-width="2"/>
<path d="M107.626 3.28613V11.0913" stroke="black" stroke-width="2"/>
<path d="M147.884 43.5449H140.079" stroke="black" stroke-width="2"/>
<path d="M136.093 72.0113L130.574 66.4922" stroke="black" stroke-width="2"/>
<path d="M136.093 15.0781L130.574 20.5972" stroke="black" stroke-width="2"/>
<path d="M107.626 75.998V83.803" stroke="black" stroke-width="2"/>
<path d="M75.1761 43.5449H67.3709" stroke="black" stroke-width="2"/>
<path d="M84.6819 20.5972L79.1631 15.0781" stroke="black" stroke-width="2"/>
<path d="M84.6819 66.4922L79.1631 72.0113" stroke="black" stroke-width="2"/>
<path d="M107.218 43.9551L122.418 60.7978" stroke="black" stroke-width="2"/>
<path d="M101.878 47.6526L132.688 28.7559" stroke="black" stroke-width="2"/>
<path d="M107.626 46.8306C109.441 46.8306 110.912 45.3592 110.912 43.5442C110.912 41.7292 109.441 40.2578 107.626 40.2578C105.811 40.2578 104.339 41.7292 104.339 43.5442C104.339 45.3592 105.811 46.8306 107.626 46.8306Z" fill="black"/>
<path d="M78.4624 30.3994L108.04 43.9558" stroke="black" stroke-width="2"/>
<path d="M618.078 88.7283C610.606 103.041 622.184 123.34 612.194 137.923C614.684 139.223 640.774 152.843 642.688 153.842C649.592 136.065 670.998 132.985 677.82 119.917C686.432 103.42 680.041 83.0642 663.543 74.4516C647.046 65.8392 626.691 72.2309 618.078 88.7283Z" fill="#FFBDEA"/>
<path d="M615.79 81.2947C621.093 70.1581 639.597 52.2494 671.179 69.7069" stroke="#181411" stroke-width="2"/>
<path d="M642.533 155.61C642.953 154.805 642.642 153.812 641.838 153.392L613.234 138.46C612.429 138.039 611.436 138.351 611.016 139.156L608.496 143.984C608.076 144.788 608.387 145.782 609.191 146.202L637.795 161.134C638.6 161.554 639.592 161.243 640.013 160.438L642.533 155.61Z" fill="#181411"/>
<path d="M638.518 163.302C638.938 162.497 638.627 161.505 637.822 161.085L608.832 145.951C608.028 145.53 607.036 145.842 606.616 146.647L603.862 151.922C603.441 152.727 603.753 153.719 604.558 154.14L633.547 169.274C634.352 169.693 635.344 169.382 635.764 168.578L638.518 163.302Z" fill="#181411"/>
<path d="M611.539 157.47L626.051 165.046C626.855 165.466 627.167 166.459 626.747 167.263L624.672 171.237C624.252 172.042 623.26 172.353 622.455 171.933L607.944 164.358C607.139 163.938 606.828 162.945 607.248 162.141L609.322 158.167C609.742 157.362 610.735 157.05 611.539 157.47Z" fill="#181411"/>
<path d="M622.963 144.916C628.548 135.512 639.001 114.137 633.325 105.604C626.709 95.6613 618.793 116.55 646.642 110.752C651.73 109.693 653.644 103.102 650.655 101.64C647.032 99.8687 641.573 105.691 646.215 113.854C654.007 128.444 663.427 123.052 661.292 119.09C659.617 115.98 648.498 112.719 630.984 149.011" stroke="white"/>
</g>
<defs>
<clipPath id="clip0_4177_614">
<rect width="700" height="807.629" fill="white"/>
</clipPath>
</defs>
</svg>
