<svg width="570" height="559" viewBox="0 0 570 559" fill="none" xmlns="http://www.w3.org/2000/svg">
<path d="M302.845 520.024C302.845 540.739 241.507 547.344 153.275 547.344C72.2383 547.344 9.7243 514.003 5.5567 482.515C5.55702 444.08 110.887 421.854 199.118 421.854C405.646 326.924 302.845 499.308 302.845 520.024Z" fill="#EDC9BC"/>
<path d="M412.93 403.798C376.059 392.651 227.145 353.78 157.298 335.738L206.602 508.302C304.782 512.589 390.779 510.089 421.504 508.302C476.704 489.545 459.018 417.733 412.93 403.798Z" fill="#90AEAD"/>
<path d="M86.5597 470.252C39.3992 443.241 59.4067 353.601 75.3055 312.156L155.693 334.665C288.601 206.581 312.716 185.145 343.8 199.078C374.883 213.012 386.137 235.521 374.883 267.14C365.879 292.435 329.687 391.294 312.716 437.56L223.755 405.406C213.036 464.892 145.51 504.014 86.5597 470.252Z" fill="#C1CFCD"/>
<path d="M424.504 155.883H539.356C542.128 155.883 544.28 158.304 543.954 161.058L525.755 314.94H384.44L419.99 159.482C420.471 157.376 422.344 155.883 424.504 155.883Z" fill="white" stroke="#46274C" stroke-width="2" stroke-linecap="round"/>
<path d="M308.899 299.541L396.652 300.59L394.501 316.045H349.56L304.212 312.269V304.172C304.212 301.593 306.319 299.511 308.899 299.541Z" fill="#46274C"/>
<path d="M433.07 154.87H565.367C568.344 154.87 570.548 157.638 569.88 160.54L533.914 316.737L393.141 314.885L428.553 158.478C429.031 156.368 430.906 154.87 433.07 154.87Z" fill="#46274C"/>
<path d="M476.291 251.115C469.366 251.115 463.751 242.951 463.751 232.879C463.751 222.808 469.366 214.643 476.291 214.643C483.217 214.643 488.832 222.808 488.832 232.879C488.832 242.951 483.217 251.115 476.291 251.115Z" fill="white" fill-opacity="0.47"/>
<path d="M278.971 345.758V295.784C282.607 302.088 300.165 298.486 304.667 305.239V312.97C315.928 313.255 325.54 313.654 331.23 312.97C338.341 312.115 360.572 292.365 366.796 295.784C371.774 298.52 364.612 309.835 362.539 312.97C372.318 306.985 384.764 302.711 386.541 308.696C387.964 313.483 378.244 319.809 373.207 322.374C398.987 322.374 398.987 330.923 392.765 334.343C387.786 337.079 314.828 346.898 278.971 345.758Z" fill="#EAA296"/>
<path d="M374.983 321.518C370.834 324.082 361.47 329.725 357.202 331.777" stroke="#46274C" stroke-width="2" stroke-linecap="round"/>
<path d="M363.427 311.26C358.094 316.674 346.003 327.845 340.313 329.213C334.624 330.581 332.016 330.353 331.423 330.068" stroke="#46274C" stroke-width="2" stroke-linecap="round"/>
<path d="M283.735 470.402C282.154 460.987 292.22 441.554 298.805 431.748L221.37 406.986C209.214 427.696 189.3 476.791 175.075 502.347C160.851 527.903 180.754 542.957 190.962 545.759C314.439 554.166 395.359 541.017 400.298 526.726C404.249 515.293 340.042 495.622 307.443 487.216C300.199 485.534 285.315 479.818 283.735 470.402Z" fill="#EAA296"/>
<path d="M211.169 425.133L295.21 439.852L299.712 431.748L221.826 404.285L211.169 425.133Z" fill="#46274C"/>
<path d="M293.113 545.984L311.845 481.118C348.323 486.108 426.801 498.915 448.885 510.225C470.97 521.535 471.233 547.093 468.604 558.459H151.142V545.984H293.113Z" fill="#8697FB"/>
<path d="M352.57 545.759C364.364 545.759 373.925 536.198 373.925 524.404C373.925 512.61 364.364 503.049 352.57 503.049C340.776 503.049 331.215 512.61 331.215 524.404C331.215 536.198 340.776 545.759 352.57 545.759Z" fill="white" fill-opacity="0.68"/>
<path d="M432.218 528.445C420.424 528.445 410.863 538.006 410.863 549.8C410.863 552.882 411.516 555.812 412.69 558.458H451.745C452.921 555.812 453.574 552.882 453.574 549.8C453.574 538.006 444.012 528.445 432.218 528.445Z" fill="white" fill-opacity="0.68"/>
<path d="M406.822 520.363C412.879 520.363 417.789 515.453 417.789 509.397C417.789 503.34 412.879 498.43 406.822 498.43C400.766 498.43 395.856 503.34 395.856 509.397C395.856 515.453 400.766 520.363 406.822 520.363Z" fill="white" fill-opacity="0.68"/>
<path d="M293.704 545.183H270.04L307.556 497.278L293.704 545.183Z" fill="#E9746E"/>
<path d="M280.755 358.572V291.943L208.321 284.98L249.74 246.262C238.185 227.653 208.591 183.593 182.659 156.22C156.728 128.849 121.731 128.908 107.475 132.359C76.4103 128.758 36.3418 251.664 17.8833 281.378C3.11662 305.149 -1.32515 348.009 0.325608 360.164C8.24924 412.748 58.5522 460.71 76.4103 461.01C38.1427 423.193 75.5101 370.069 91.7175 368.268C104.684 366.828 224.029 363.824 280.755 358.572Z" fill="#9872EF"/>
<path d="M178.505 36.8706C181.614 41.9893 187.653 54.6459 182.906 59.1719C176.972 64.8287 189.688 76.9518 190.535 89.8824C191.312 101.73 192.088 113.578 198.081 116.102C198.72 116.257 199.317 116.408 199.86 116.553C199.22 116.486 198.63 116.333 198.081 116.102C190.413 114.248 176.45 111.953 170.19 114.937C163.408 118.169 151.539 118.978 146.453 118.978C143.627 99.0428 145.274 53.6818 178.505 36.8706Z" fill="#DD3728"/>
<path d="M108.092 141.366L106.361 106.457C109.743 10.0628 157.105 12.4736 161.333 14.8834C164.715 16.8106 171.763 22.1127 174.865 24.5225C176.556 34.9647 186.202 66.3467 177.929 84.1979C166.963 107.862 149.493 106.457 149.493 106.457C149.775 109.938 151.479 135.133 150.802 140.274C149.957 146.701 145.784 162.92 128.87 162.117C115.339 161.474 108.656 145.115 108.092 141.366Z" fill="#EAA296"/>
<path d="M29.0212 99.7037C34.1735 101.034 60.9716 87.0055 64.0313 75.3436C72.6183 42.6123 81.2054 52.9905 89.7925 34.629C96.6624 19.9396 106.394 13.0742 110.402 11.4775" stroke="#E95850" stroke-width="2"/>
<path d="M166.385 46.8953C167.411 46.0711 170.233 44.9181 173.312 46.8953" stroke="white" stroke-width="2"/>
<path d="M131.757 46.8965H143.301" stroke="white" stroke-width="2"/>
<path d="M173.78 25.6934C174.655 30.7565 178.526 41.5043 187.011 43.9863C197.618 47.0889 183.885 60.6641 195.095 71.9629C206.305 83.2618 196.25 86.1411 199.362 86.7283" stroke="#DD3728" stroke-width="2"/>
<path d="M138.087 41.5487C146.341 33.157 153.563 34.286 157.002 14.9215C158.722 21.3766 164.156 26.7602 167.924 24.2347C172.223 21.3535 172.262 30.3564 175.127 30.0869C177.378 21.5341 161.301 -6.05727 128.63 1.20453C95.9584 8.46634 97.6773 34.286 89.9396 46.3896C82.2016 58.4923 77.0429 56.0723 71.8843 83.5062C67.7573 105.453 56.9815 113.092 52.1094 114.168C59.8474 119.277 78.2466 127.723 89.9396 120.622C101.633 113.521 114.3 115.512 119.172 117.394C123.184 113.63 130.693 103.516 128.63 93.188C126.05 80.2787 136.367 78.6644 131.209 67.3684C126.05 56.0723 127.77 52.0381 138.087 41.5487Z" fill="#E95850"/>
<path d="M177.24 79.59C179.371 79.7001 181.308 75.742 181.566 70.7493C181.824 65.7567 180.305 61.6201 178.174 61.5101C176.043 61.4 174.107 65.3581 173.849 70.3507C173.591 75.3434 175.109 79.4799 177.24 79.59Z" fill="#E9746E" fill-opacity="0.78"/>
<path d="M150.524 77.6886C154.282 77.1505 156.718 72.4468 155.965 67.1826C155.211 61.9183 151.553 58.087 147.795 58.6251C144.036 59.1632 141.6 63.8669 142.354 69.1311C143.107 74.3953 146.765 78.2266 150.524 77.6886Z" fill="#E9746E" fill-opacity="0.78"/>
<path d="M167.767 51.1332C167.767 57.8115 162.029 63.3128 154.841 63.3128C147.653 63.3128 141.915 57.8115 141.915 51.1332C141.915 44.4539 147.653 38.9536 154.841 38.9536C162.029 38.9536 167.767 44.4539 167.767 51.1332Z" stroke="white" stroke-width="2"/>
<path d="M184.276 65.9569C191.096 65.9569 196.625 60.4282 196.625 53.6082C196.625 46.7882 191.096 41.2595 184.276 41.2595C177.456 41.2595 171.928 46.7882 171.928 53.6082C171.928 60.4282 177.456 65.9569 184.276 65.9569Z" stroke="white" stroke-width="2"/>
<path d="M150.226 106.131C145.608 107.054 135.99 105.746 131.757 104.977C136.374 113.749 145.994 117.867 150.226 118.828V106.131Z" fill="#46274C"/>
<path d="M98.86 99.2059C84.5461 102.899 73.6569 96.1274 70.0015 92.2803C65.846 104.747 56.3419 111.711 52.1094 113.635C67.1157 126.332 79.2362 124.601 94.2423 118.83C106.248 114.212 115.79 116.137 119.061 117.675C123.678 112.135 125.217 107.671 125.409 106.132C105.209 110.749 116.752 94.5882 98.86 99.2059Z" fill="#DD3728"/>
<path d="M171.006 184.626H94.8194C88.3554 212.792 87.0177 291.172 87.7873 297.137L187.163 288.132L171.006 184.626Z" fill="#C1CFCD"/>
<path d="M146.763 185.779C151.38 173.774 152.876 149.235 151.145 135.961C157.447 136.861 169.095 144.007 171.404 146.315C171.404 154.165 166.002 179.238 163.501 189.819L146.763 185.779Z" fill="#C1CFCD"/>
<path d="M164.656 184.625L171.005 148.264C170.428 175.967 171.005 177.699 175.046 178.853C178.812 179.93 186.262 291.283 230.382 265.621L206.071 288.581H186.262L171.005 184.625H164.656Z" fill="#763FF4"/>
<path d="M115.6 186.934C104.98 164.772 103.48 141.53 104.057 132.681C98.4747 132.681 90.7816 140.184 87.8957 143.07C88.8192 152.766 96.3604 176.353 100.016 186.934H115.6Z" fill="#C1CFCD"/>
<path d="M147.321 184.59L113.864 185.203L111.556 176.546L147.321 184.59Z" fill="#46274C"/>
<path d="M211.018 285.431L75.9566 276.427L70.1039 298.037L150.241 317.396L211.018 285.431Z" fill="#9872EF"/>
<path d="M36.3413 354.312C12.9306 331.982 24.272 291.5 31.0251 271.091C16.2583 357.891 110.365 368.786 158.686 365.184C129.273 371.638 59.752 376.642 36.3413 354.312Z" fill="#B88CF6"/>
<path d="M382.416 315.965C385.316 314.043 387.034 311.529 386.253 310.352C385.472 309.174 382.489 309.778 379.589 311.7C376.689 313.623 374.971 316.136 375.752 317.314C376.533 318.492 379.517 317.888 382.416 315.965Z" fill="white" fill-opacity="0.63"/>
<path d="M366.604 304.118C367.702 301.472 367.351 298.813 365.822 298.179C364.292 297.545 362.163 299.175 361.066 301.821C359.968 304.466 360.318 307.125 361.848 307.76C363.378 308.394 365.507 306.764 366.604 304.118Z" fill="white" fill-opacity="0.63"/>
<path d="M239.405 370.453L223.661 401.015" stroke="#46274C" stroke-width="2" stroke-linecap="round"/>
<path d="M222.272 371.842L225.976 384.808" stroke="#46274C" stroke-width="2" stroke-linecap="round"/>
</svg>
