<svg width="701" height="526" viewBox="0 0 701 526" fill="none" xmlns="http://www.w3.org/2000/svg">
<path d="M692.869 1.79248H187.604C184.105 1.79248 181.268 4.62903 181.268 8.12809V400.144C181.268 403.643 184.105 406.48 187.604 406.48H692.869C696.368 406.48 699.204 403.643 699.204 400.144V8.12809C699.204 4.62903 696.368 1.79248 692.869 1.79248Z" stroke="#46274C" stroke-opacity="0.5" stroke-width="2"/>
<path d="M392.678 190.65C401.918 186.22 404.569 186.528 413.417 185.635C412.61 183.624 414.356 176.201 440.558 169.849C466.46 163.571 615.285 277.126 631.092 295.192C646.9 313.258 652.174 342.615 625.826 359.929C604.744 373.779 564.347 362.689 546.789 355.412L552.808 408.857L372.9 399.824L364.028 336.645L363.338 338.015C338.555 387.202 319.262 425.495 274.155 399.824C257.244 390.2 165.895 316.269 130.515 284.654L167.4 235.725L286.321 313.097C324.39 264.825 364.028 204.386 392.678 190.65Z" fill="white"/>
<path d="M426.823 199.677L434.672 186.333L446.053 199.677C452.961 255.877 458.873 358.361 460.966 402.578H443.306C444.247 384.054 432.71 259.592 426.823 199.677Z" fill="#8697FB"/>
<path d="M546.528 354.699L492.591 336.595L553.56 408.859L546.528 354.699Z" fill="#ECE9E8"/>
<path d="M582.918 280.891L570.12 295.946" stroke="#46274C" stroke-width="2"/>
<path d="M459.006 167.293C436.712 164.91 406.393 165.602 401.115 167.293L434.559 185.304L459.006 167.293Z" fill="#46274C"/>
<path d="M392.02 97.7394C390.696 91.5028 392.572 85.2662 393.676 82.9275C404.718 77.7307 428.457 68.8959 435.081 75.1323C441.706 81.369 438.946 100.078 436.737 108.652C448.331 82.9275 471.517 96.18 471.517 111.771C471.517 124.244 457.163 127.362 449.987 127.362V179.591C432.1 193.935 416.588 185.568 411.067 179.591L409.411 156.205C382.912 148.41 385.397 124.244 388.709 116.448C392.021 108.652 393.676 105.535 392.02 97.7394Z" fill="#EAA296"/>
<path d="M390.586 128.841C388.277 128.472 386.931 124.412 387.58 119.774C388.229 115.135 390.628 111.674 392.937 112.043C395.246 112.412 396.592 116.472 395.943 121.11C395.294 125.749 392.896 129.21 390.586 128.841Z" fill="#E9746E" fill-opacity="0.78"/>
<path d="M426.566 131.35C422.644 132.036 418.916 128.046 418.24 122.439C417.563 116.831 420.193 111.73 424.115 111.044C428.036 110.359 431.764 114.349 432.441 119.956C433.118 125.563 430.487 130.665 426.566 131.35Z" fill="#E9746E" fill-opacity="0.78"/>
<path d="M437.566 150.748C426.966 158.232 413.827 157.504 408.583 156.205L410.345 172.205C424.919 169.71 434.529 156.465 437.566 150.748Z" fill="#46274C"/>
<path d="M456.611 94.6212C444.686 92.7506 438.571 105.264 436.638 110.981C436.915 103.185 435.909 85.7339 432.596 84.4866C428.456 82.928 403.614 84.4866 393.677 82.928C383.74 81.3687 377.114 78.2505 376.287 69.6755C375.624 62.8154 378.771 57.9809 384.567 57.2025C406.702 54.2295 443.361 55.6433 449.986 60.3206C455.286 64.0624 456.611 71.2343 456.611 74.3525V94.6212Z" fill="#46274C"/>
<path d="M462.407 104.755L448.02 109.805L457.438 114.889" stroke="#46274C" stroke-width="2" stroke-linecap="round"/>
<path d="M411.522 102.74C412.105 106.926 415.199 115.298 422.903 115.298C432.534 115.298 434.285 106.089 434.285 102.74" stroke="white" stroke-width="2"/>
<path d="M383.259 102.74C384.134 106.329 387.461 113.841 393.764 115.167C400.068 116.493 404.563 107.434 406.021 102.74" stroke="white" stroke-width="2"/>
<path d="M383.259 102.74H439.773" stroke="white" stroke-width="2" stroke-linecap="round"/>
<path d="M469.712 180.585L457.882 166.454L434.792 185.883L400.882 166.718L394.251 192.221C448.933 186.479 464.183 186.183 469.712 180.585Z" fill="white"/>
<path d="M445.665 200.07C453.625 265.564 460.971 373.537 460.971 404.541" stroke="#46274C" stroke-width="2"/>
<path d="M427.427 198.268L443.309 393.945" stroke="#46274C" stroke-width="2"/>
<path d="M395.819 192.22L419.111 211.71L435.025 186.458L453.226 209.302L470.081 178.833" stroke="#46274C" stroke-width="2"/>
<path d="M438.463 211.927C440.422 211.133 441.381 208.941 440.607 207.029C439.832 205.118 437.617 204.212 435.659 205.005C433.7 205.799 432.74 207.991 433.515 209.903C434.289 211.814 436.505 212.721 438.463 211.927Z" fill="white"/>
<path d="M441.383 249.694C443.342 248.9 444.302 246.707 443.527 244.796C442.753 242.884 440.537 241.978 438.579 242.772C436.62 243.565 435.661 245.758 436.435 247.669C437.21 249.581 439.425 250.487 441.383 249.694Z" fill="white"/>
<path d="M374.621 56.8818C368.736 63.0948 368.614 83.5484 394.946 81.0474" stroke="#46274C" stroke-width="2" stroke-linecap="round"/>
<path d="M285.929 311.136C287.761 323.041 291.424 348.891 291.424 357.055" stroke="#46274C" stroke-width="2" stroke-linecap="round"/>
<path d="M180.421 8.12756C180.421 4.19111 183.611 1 187.548 1H692.872C696.808 1 700 4.19112 700 8.12756V44.9366H180.421V8.12756Z" fill="#EDC9BC"/>
<path d="M181.213 8.12809C181.213 4.62903 184.049 1.79248 187.548 1.79248H692.872C696.373 1.79248 699.208 4.62903 699.208 8.12809V44.1452H181.213V8.12809Z" stroke="#46274C" stroke-opacity="0.33" stroke-width="2"/>
<path d="M221.262 31.0939C225.417 31.0939 228.785 27.5482 228.785 23.1744C228.785 18.8006 225.417 15.2549 221.262 15.2549C217.106 15.2549 213.738 18.8006 213.738 23.1744C213.738 27.5482 217.106 31.0939 221.262 31.0939Z" fill="#F5F5F5"/>
<path d="M248.188 31.0939C252.343 31.0939 255.711 27.5482 255.711 23.1744C255.711 18.8006 252.343 15.2549 248.188 15.2549C244.033 15.2549 240.664 18.8006 240.664 23.1744C240.664 27.5482 244.033 31.0939 248.188 31.0939Z" fill="#F5F5F5"/>
<path d="M275.906 31.0939C280.061 31.0939 283.43 27.5482 283.43 23.1744C283.43 18.8006 280.061 15.2549 275.906 15.2549C271.751 15.2549 268.383 18.8006 268.383 23.1744C268.383 27.5482 271.751 31.0939 275.906 31.0939Z" fill="#F5F5F5"/>
<path d="M108.884 259.789L141.614 219.32C139.644 218.846 129.735 214.659 128.151 210.609C124.126 200.315 114.736 197.999 103.997 191.861C93.2561 185.722 82.3018 169.581 74.6936 176.022C68.6066 181.174 82.9291 200.233 89.7383 206.143C77.1621 213.705 66.6069 214.971 62.9014 214.659C57.7743 204.99 53.8082 192.864 48.164 194.237C43.6483 195.334 43.6815 207.088 44.0173 209.375C31.358 195.993 25.9339 193.752 22.8215 197.8C20.3316 201.039 25.1721 211.79 27.5574 214.762C14.3176 208.105 -8.15798 214.069 3.02199 219.32C14.202 224.572 51.331 245.713 87.2009 249.034C99.2282 250.148 106.509 257.536 108.884 259.789Z" fill="#EAA296"/>
<path d="M89.0627 206.395L97.8058 215.444" stroke="#46274C" stroke-width="2" stroke-linecap="round"/>
<path d="M91.5035 233.695C84.1606 232.563 68.2954 227.122 63.5762 214.409" stroke="#46274C" stroke-width="2" stroke-linecap="round"/>
<path d="M44.2035 209.679C48.2725 219.259 58.8118 238.453 65.5156 238.279" stroke="#46274C" stroke-width="2" stroke-linecap="round"/>
<path d="M143.595 220.37C147.713 224.172 160.226 234.23 164.582 237.793L133.696 280.559L109.541 258.385L143.595 220.37Z" fill="#EAA296"/>
<path d="M145.042 297.4L185.073 247.165L167.804 233.821L129.736 284.449L145.042 297.4Z" fill="#8697FB"/>
<path d="M141.453 217.78C130.715 227.103 110.857 250.179 108.438 254.914L122.447 269.653C125.242 264.314 151.883 234.762 156.896 229.66L141.453 217.78Z" fill="#46274C"/>
<path d="M128.39 261.794C124.753 254.465 117.568 248.41 114.531 246.747L112.551 249.915L126.806 264.962L128.39 261.794Z" fill="white"/>
<path d="M122.139 255.242C128.192 262.692 130.021 271.745 126.224 275.462C122.428 279.179 114.443 276.153 108.391 268.703C102.339 261.253 100.51 252.2 104.307 248.483C108.103 244.766 116.087 247.792 122.139 255.242Z" fill="#46274C"/>
<path d="M120.388 257.608C126.441 265.058 128.27 274.111 124.473 277.828C120.677 281.545 112.693 278.519 106.64 271.069C100.588 263.619 98.7591 254.567 102.556 250.849C106.352 247.132 114.336 250.158 120.388 257.608Z" fill="white"/>
<path d="M107.6 263.266L112.369 264.93L113.928 274.627" stroke="#46274C" stroke-width="2" stroke-linecap="round"/>
<path d="M279.965 407.481L350.567 347.084L406.677 508.082L398.358 525.273L388.119 513.176L380.439 520.18L370.839 508.082L367 510.629L279.965 407.481Z" fill="#F2CD87"/>
<path d="M350.966 347.876L294.22 415.369L369.455 507.058" stroke="#46274C" stroke-width="2" stroke-linecap="round"/>
<path d="M350.924 346.292L311.643 421.551L387.67 513.394" stroke="#46274C" stroke-width="2" stroke-linecap="round"/>
<path d="M334.61 418.235L350.552 347.084L432.812 458.892L420.696 523.69L334.61 418.235Z" fill="#DD3728"/>
<path d="M503.295 408.349L419.539 293.231L349.657 346.748L432.966 457.957L503.295 408.349Z" fill="#E95850"/>
<path d="M350.449 347.084L432.812 457.958" stroke="#46274C" stroke-width="2" stroke-linecap="round"/>
<path d="M489.676 338.151L493.371 284.298C433.579 265.907 387.499 244.128 386.458 249.848C383.434 266.479 425.66 275.983 425.66 275.983C434.05 275.983 398.998 284.298 398.998 303.92C398.998 322.203 410.481 318.967 410.481 303.92C410.481 298.773 419.984 293.802 433.579 293.802C446.266 293.802 448.626 307.793 448.23 314.392C440.707 315.449 422.835 320.393 419.984 322.927C414.441 327.855 417.011 333.665 437.011 330.451C447.967 328.689 459.978 338.766 475.421 332.827C483.097 329.874 489.544 337.228 489.676 338.151Z" fill="#EAA296"/>
<path d="M393.214 313.03L414.597 298.775L409.845 319.762L393.214 313.03Z" fill="#E95850"/>
<path d="M391.746 253.895C394.738 255.132 397.641 254.982 398.229 253.56C398.817 252.138 396.867 249.982 393.875 248.745C390.882 247.508 387.979 247.658 387.392 249.08C386.804 250.502 388.753 252.658 391.746 253.895Z" fill="white" fill-opacity="0.63"/>
<path d="M425.333 330.724C428.006 330.285 429.97 328.698 429.721 327.179C429.471 325.661 427.102 324.786 424.429 325.225C421.756 325.664 419.792 327.251 420.041 328.77C420.291 330.288 422.66 331.163 425.333 330.724Z" fill="white" fill-opacity="0.63"/>
<path d="M4.97472 220.482C7.44094 221.603 9.80905 221.699 10.264 220.697C10.719 219.696 9.08863 217.975 6.62241 216.855C4.15619 215.735 1.78807 215.639 1.33307 216.64C0.878079 217.642 2.5085 219.362 4.97472 220.482Z" fill="white" fill-opacity="0.63"/>
<path d="M426.921 276.594C429.879 277.28 436.179 278.742 437.722 279.1C439.651 279.547 442.614 280.793 445.027 282.656" stroke="#46274C" stroke-width="2" stroke-linecap="round"/>
<path d="M499.036 339.786L510.66 281.748L493.237 277.393L482.16 336.646L499.036 339.786Z" fill="#8697FB"/>
<path d="M493.241 277.789L597.981 302.722" stroke="#46274C" stroke-width="2"/>
<path d="M25.5903 213.242C28.8769 215.879 33.9058 221.558 38.2607 229.081" stroke="#46274C" stroke-width="2" stroke-linecap="round"/>
<path d="M466.073 334.016C469.637 334.808 480.461 331.771 482.308 332.432L490.228 290.062L466.073 334.016Z" fill="#E97E77"/>
</svg>
